<svg width="260" height="67" viewBox="0 0 260 67" fill="none" xmlns="http://www.w3.org/2000/svg">
<g clip-path="url(#clip0_22738_68399)">
<path d="M60.0756 60.8451H73.4258V20.6102H60.0756V60.8451ZM80.1008 13.9044H113.476V0.492798H80.1008V13.9044ZM60.0756 0.492798H73.4258V13.9044H60.0756V0.492798ZM40.0504 60.8451H53.4006V0.492798H40.0504V60.8451ZM20.0252 47.4335H33.3754V0.492798H20.0252V47.4335ZM0 60.8451H13.3501V0.492798H0V60.8451ZM80.1008 60.8451H93.451V20.6102H80.1008V60.8451Z" fill="black"/>
<path d="M128.752 35.6979H133.828V56.5893H145.592V60.8451H128.752V35.6979Z" fill="black"/>
<path d="M146.711 51.8062C146.711 46.4602 150.317 42.3101 155.569 42.3101C161.345 42.3101 164.426 46.7416 164.426 53.1778H151.403C151.753 55.9563 153.293 57.6797 155.989 57.6797C157.844 57.6797 158.93 56.8356 159.455 55.4638H164.146C163.481 58.6644 160.645 61.3726 156.024 61.3726C150.072 61.3727 146.711 57.1872 146.711 51.8062ZM151.473 49.8718H159.455C159.315 47.5857 157.809 46.003 155.639 46.003C153.118 46.003 151.893 47.5153 151.473 49.8718Z" fill="black"/>
<path d="M177.379 58.8402H177.309C176.399 60.2119 175.104 61.2671 172.023 61.2671C168.347 61.2671 165.756 59.3327 165.756 55.7453C165.756 51.7709 168.977 50.5048 172.968 49.9421C175.944 49.52 177.31 49.2738 177.31 47.9022C177.31 46.6009 176.294 45.7567 174.299 45.7567C172.058 45.7567 170.973 46.5656 170.833 48.289H166.597C166.737 45.1236 169.082 42.3452 174.334 42.3452C179.725 42.3452 181.896 44.772 181.896 48.9925V58.172C181.896 59.5436 182.106 60.3527 182.526 60.6691V60.845H177.94C177.66 60.4933 177.485 59.6491 177.379 58.8402ZM177.415 54.4791V51.7709C176.574 52.2634 175.279 52.5447 174.089 52.8261C171.603 53.3888 170.378 53.9515 170.378 55.6397C170.378 57.3279 171.498 57.9257 173.178 57.9257C175.909 57.9258 177.415 56.2376 177.415 54.4791Z" fill="black"/>
<path d="M189.492 45.6864H189.597C190.682 43.6465 191.908 42.5914 194.008 42.5914C194.533 42.5914 194.848 42.6266 195.129 42.7321V46.9175H195.024C191.908 46.6009 189.667 48.2539 189.667 52.0524V60.8451H184.906V42.8024H189.492L189.492 45.6864Z" fill="black"/>
<path d="M201.85 45.2644H201.955C203.18 43.33 204.826 42.3101 207.277 42.3101C210.988 42.3101 213.473 45.1236 213.473 49.0629V60.8452H208.712V49.7663C208.712 47.832 207.592 46.4603 205.596 46.4603C203.496 46.4603 201.955 48.1486 201.955 50.6105V60.8452H197.194V42.8024H201.85L201.85 45.2644Z" fill="black"/>
<path d="M216.414 35.6979H221.175V39.9887H216.414V35.6979ZM216.414 42.8024H221.175V60.8451H216.414V42.8024Z" fill="black"/>
<path d="M228.912 45.2644H229.017C230.242 43.33 231.888 42.3101 234.339 42.3101C238.05 42.3101 240.535 45.1236 240.535 49.0629V60.8452H235.774V49.7663C235.774 47.832 234.654 46.4603 232.658 46.4603C230.558 46.4603 229.017 48.1486 229.017 50.6105V60.8452H224.256V42.8024H228.912L228.912 45.2644Z" fill="black"/>
<path d="M242.985 61.3727H247.712C248.097 62.4981 249.112 63.3774 251.318 63.3774C254.013 63.3774 255.309 62.0761 255.309 59.6141V57.6445H255.204C254.153 58.8403 252.788 59.7547 250.512 59.7547C246.521 59.7547 242.6 56.5893 242.6 51.1379C242.6 45.7568 245.821 42.3101 250.372 42.3101C252.613 42.3101 254.258 43.1893 255.344 44.7017H255.414V42.8024H260V59.4734C260 62.0057 259.195 63.7292 257.864 64.9601C256.359 66.3669 254.048 67 251.387 67C246.486 67 243.475 64.8897 242.985 61.3727ZM255.554 51.0324C255.554 48.3945 254.153 46.1436 251.283 46.1436C248.867 46.1436 247.256 48.0429 247.256 51.0675C247.256 54.1274 248.867 55.9211 251.318 55.9211C254.328 55.9212 255.554 53.7054 255.554 51.0324Z" fill="black"/>
<path d="M127.667 13.1187C127.667 5.59223 132.358 0 139.745 0C147.132 0 151.788 5.59223 151.788 13.1187C151.788 20.6453 147.132 26.2023 139.745 26.2023C132.358 26.2023 127.667 20.6453 127.667 13.1187ZM146.607 13.1187C146.607 8.0893 144.366 4.18535 139.78 4.18535C135.194 4.18535 132.848 8.0893 132.848 13.1187C132.848 18.113 135.194 22.0169 139.78 22.0169C144.366 22.0169 146.607 18.113 146.607 13.1187Z" fill="black"/>
<path d="M154.168 7.59693H158.755V9.8479H158.86C160.015 8.26524 161.696 7.10455 164.146 7.10455C168.907 7.10455 171.953 11.0085 171.953 16.6359C171.953 22.4742 168.802 26.1672 164.181 26.1672C161.66 26.1672 160.015 25.1472 159 23.5997H158.93V31.5482H154.168V7.59693ZM167.122 16.7765C167.122 13.365 165.932 10.9734 162.991 10.9734C160.015 10.9734 158.825 13.5409 158.825 16.7765C158.825 20.0474 160.33 22.1928 163.166 22.1928C165.582 22.1928 167.122 20.1881 167.122 16.7765Z" fill="black"/>
<path d="M173.283 16.6006C173.283 11.2547 176.889 7.10455 182.141 7.10455C187.917 7.10455 190.998 11.5361 190.998 17.9723H177.974C178.325 20.7508 179.865 22.4742 182.561 22.4742C184.416 22.4742 185.502 21.6301 186.027 20.2583H190.718C190.053 23.4589 187.217 26.1671 182.596 26.1671C176.644 26.1672 173.283 21.9817 173.283 16.6006ZM178.045 14.6663H186.027C185.887 12.3802 184.381 10.7975 182.211 10.7975C179.69 10.7974 178.465 12.3098 178.045 14.6663Z" fill="black"/>
<path d="M197.859 10.0589H197.964C199.19 8.12451 200.835 7.10455 203.286 7.10455C206.997 7.10455 209.483 9.91814 209.483 13.8574V25.6397H204.721V14.5608C204.721 12.6265 203.601 11.2548 201.605 11.2548C199.505 11.2548 197.964 12.943 197.964 15.405V25.6397H193.203V7.59693H197.859L197.859 10.0589Z" fill="black"/>
</g>
<defs>
<clipPath id="clip0_22738_68399">
<rect width="260" height="67" fill="white"/>
</clipPath>
</defs>
</svg>
