<svg width="146" height="93" viewBox="0 0 146 93" fill="none" xmlns="http://www.w3.org/2000/svg">
<path d="M0.788193 42.3662L0.457825 40.8244C0.347694 40.3104 0.25592 39.7781 0.182503 39.2275C0.127434 38.6768 0.127426 38.2363 0.0723648 37.7407V36.9698C0.0173035 36.6395 0.0723648 36.4743 0.0723648 36.1989C0.237556 32.0691 1.66922 28.2146 3.7066 25.186C5.74399 22.0474 8.22191 19.5695 10.6447 17.5321C13.0676 15.4947 15.5455 13.9529 17.748 12.6314C20.0057 11.3649 21.988 10.3737 23.6399 9.65788C25.3469 8.88697 26.6685 8.39139 27.6046 8.00594C28.4856 7.67555 28.9812 7.51036 28.9812 7.51036C28.9812 7.51036 28.5407 7.73062 27.6596 8.11607C27.1824 8.33633 26.6318 8.59329 26.0077 8.88697C25.3836 9.21736 24.6678 9.60281 23.8602 10.0433C22.2083 10.8693 20.281 11.9706 18.1885 13.3472C16.0961 14.7238 13.7284 16.3757 11.4707 18.4682C9.158 20.5606 6.90034 23.0385 5.08321 26.012C3.26609 28.9855 2.05469 32.5096 1.99962 36.254C1.94456 36.4743 1.94453 36.7496 1.94453 36.9148L1.99962 37.6306C2.05469 38.1262 2.05469 38.6218 2.10976 39.0623L2.38508 40.4389L2.71545 41.8155C3.32116 43.6326 4.09208 45.4498 5.1383 47.1568C7.17568 50.5157 10.039 53.4892 13.2878 55.9671C16.4816 58.5 20.0057 60.7026 23.6399 62.4647C27.2742 64.2818 30.9635 65.8236 34.5978 67.0901C41.9764 69.6781 49.0797 71.275 55.247 72.3212C58.2755 72.8168 61.1388 73.2023 63.6718 73.5326C66.2048 73.808 68.4073 74.0282 70.2245 74.1384C72.0416 74.3035 73.4733 74.3586 74.4644 74.4137C75.4005 74.4687 75.9512 74.5238 75.9512 74.5238C75.9512 74.5238 75.4005 74.5238 74.4644 74.5238C73.4733 74.5238 72.0416 74.6339 70.1694 74.5789C68.3523 74.5238 66.1497 74.4687 63.5617 74.3035C61.0287 74.1383 58.1654 73.9732 55.0267 73.5326C51.888 73.1472 48.5291 72.5965 45.0049 71.8256C41.4808 71.0547 37.7915 70.1737 33.9921 68.9072C30.2477 67.6407 26.4482 66.2091 22.7038 64.3369C18.9595 62.5197 15.3252 60.3172 11.9663 57.6741C8.60734 55.031 5.57879 51.8372 3.32114 48.203C2.21986 46.3859 1.39391 44.4035 0.788193 42.3662Z" fill="#3A261B"/>
<path d="M68.0235 1.78366C65.4906 1.78366 63.0677 1.78367 60.7 1.89379C56.0195 2.05899 51.5593 2.44444 47.4295 2.99508C43.3547 3.54573 39.6103 4.2065 36.3064 4.86728C33.0576 5.58311 30.1943 6.35401 27.8816 7.01479C25.5689 7.67556 23.7517 8.28127 22.5403 8.72179C21.3289 9.1623 20.6681 9.38256 20.6681 9.38256C20.6681 9.38256 21.3289 9.10724 22.4853 8.61166C23.6967 8.11608 25.4587 7.40024 27.7714 6.62934C32.3418 5.03247 39.0597 3.10521 47.2643 1.78366C51.3941 1.17795 55.8543 0.62731 60.6449 0.351988C63.0127 0.186795 65.4906 0.0766668 67.9685 0.0216023C70.5015 -0.0334621 73.0344 0.0216007 75.6775 0.13173C86.0847 0.572245 97.2077 2.11405 107.89 5.25273C113.231 6.90466 118.518 8.88698 123.363 11.4199C128.264 13.9529 132.889 16.9815 136.689 20.7258C140.488 24.3601 143.462 28.8754 144.563 33.721C145.169 36.1439 145.279 38.5117 145.004 40.8244C144.728 43.1371 144.012 45.2846 143.131 47.2118C141.314 51.1214 138.671 54.0398 136.193 56.2975C133.66 58.6102 131.238 60.3172 129.145 61.5837C128.154 62.2444 127.218 62.7951 126.392 63.2356C125.566 63.6761 124.85 64.0616 124.244 64.3369C123.088 64.8875 122.482 65.2179 122.482 65.2179C122.482 65.2179 123.088 64.8875 124.189 64.2268C125.346 63.566 126.943 62.5748 128.925 61.2533C130.907 59.8767 133.275 58.1146 135.643 55.7468C136.193 55.1411 136.799 54.5354 137.405 53.8746C137.68 53.5443 137.955 53.2139 138.231 52.8284C138.524 52.4613 138.8 52.0942 139.057 51.7271C140.158 50.2404 141.259 48.5885 142.03 46.7163C142.801 44.8991 143.462 42.8617 143.627 40.7142C143.847 38.5667 143.627 36.254 143.076 34.1065C141.92 29.6463 139.057 25.5164 135.367 22.0474C131.733 18.5233 127.273 15.6599 122.482 13.2371C117.692 10.8142 112.571 8.88698 107.285 7.29011C96.8223 4.15143 85.8644 2.4995 75.5674 2.00392C73.0344 1.89379 70.4464 1.83873 68.0235 1.78366Z" fill="#3A261B"/>
<path d="M84.9827 74.9092C87.8461 74.5238 90.7095 74.0282 93.5728 73.4776C96.3811 72.9269 99.1894 72.3212 101.998 71.6054L102.879 71.3851L103.099 72.2662C103.264 72.7617 103.539 73.3674 103.76 73.9732C104.053 74.5238 104.365 75.0744 104.696 75.6251C105.302 76.7264 106.072 77.7726 106.898 78.7087C108.55 80.691 110.478 82.398 112.57 83.8848C114.662 85.3715 116.975 86.5829 119.343 87.6291C120.499 88.1247 121.711 88.6203 122.977 89.0058L124.409 89.5013C124.225 89.1342 124.042 88.7671 123.858 88.4C123.344 87.2988 122.849 86.1975 122.372 85.0962C121.49 82.8385 120.72 80.5258 120.114 78.158C119.508 75.7903 119.068 73.3124 119.013 70.8895C119.013 69.6231 119.013 68.4116 119.233 67.1452C119.306 66.5211 119.416 65.9154 119.563 65.328C119.728 64.7223 119.949 64.1166 120.169 63.5109L120.224 63.2356L120.499 63.1255C123.693 61.5286 126.887 59.7115 129.97 57.7842C131.457 56.8481 132.999 55.8019 134.431 54.7006C135.807 53.5442 137.239 52.3879 138.285 50.8461C137.349 52.443 136.028 53.8196 134.706 55.031C133.329 56.2424 131.898 57.3988 130.411 58.445C127.548 60.5925 124.519 62.4647 121.38 64.2267C120.72 66.3192 120.499 68.5768 120.665 70.7794C120.83 73.0921 121.325 75.4048 121.931 77.6625C122.537 79.9201 123.363 82.1227 124.244 84.3253C124.721 85.3899 125.217 86.4544 125.73 87.519C126.226 88.5652 126.777 89.6665 127.327 90.6577L128.594 92.8052L126.171 92.1995L124.244 91.6488L122.261 91.0431C120.995 90.6026 119.728 90.107 118.462 89.6115C115.984 88.5102 113.561 87.1886 111.359 85.5917C110.808 85.2063 110.257 84.7658 109.707 84.3803C109.193 83.9398 108.679 83.4809 108.165 83.0037C107.137 82.086 106.201 81.0765 105.357 79.9752C104.476 78.929 103.705 77.7726 102.989 76.5612C102.658 75.9738 102.346 75.3681 102.053 74.7441C101.906 74.3402 101.759 73.9364 101.612 73.5326C99.0425 74.12 96.4362 74.6156 93.7931 75.0194C90.9297 75.515 88.0113 75.8453 85.0929 76.0656C82.1745 76.3409 79.2561 76.451 76.3376 76.5061C74.906 76.5428 73.4559 76.5428 71.9875 76.5061C70.5008 76.5061 69.0691 76.4511 67.6375 76.396C70.5008 76.2308 73.4192 76.1207 76.3376 75.8453C79.201 75.6251 82.1194 75.2947 84.9827 74.9092Z" fill="#3A261B"/>
</svg>
