<svg width="173" height="120" viewBox="0 0 173 120" fill="none" xmlns="http://www.w3.org/2000/svg">
<g filter="url(#filter0_d_21364_65789)">
<path d="M7.33514 40.1174C5.95853 32.4634 9.59277 24.5341 15.2094 19.1929C20.7709 13.7966 28.0945 10.6028 35.4731 8.17999C66.2541 -1.84174 100.945 0.581097 129.964 14.8979C135.856 17.7612 140.091 21.3424 144.551 26.133C149.011 30.9787 149.326 35.5803 149.051 42.133C148.831 48.8509 143.051 52.133 140.051 55.633C133.551 60.633 129.551 60.633 125.551 65.133C123.568 72.2914 122.091 81.686 126.551 87.633C118.787 86.0912 113.885 79.5986 106.837 73.4864C103.313 72.7706 97.8061 74.7529 93.3459 74.9732C72.0359 76.0745 52.3228 70.1275 32.3895 62.6387C26.883 60.5463 21.3766 58.1785 16.7512 54.5443C12.1258 50.9651 8.38136 45.8991 7.33514 40.1174Z" fill="white"/>
<path d="M5.79015 43.3662L5.45978 41.8244C5.34965 41.3104 5.25787 40.7781 5.18446 40.2275C5.12939 39.6768 5.12938 39.2363 5.07432 38.7407V37.9698C5.01926 37.6395 5.07432 37.4743 5.07432 37.1989C5.23951 33.0691 6.67117 29.2146 8.70856 26.186C10.7459 23.0474 13.2239 20.5695 15.6467 18.5321C18.0695 16.4947 20.5474 14.9529 22.75 13.6314C25.0076 12.3649 26.99 11.3737 28.6419 10.6579C30.3489 9.88697 31.6704 9.39139 32.6065 9.00594C33.4876 8.67555 33.9832 8.51036 33.9832 8.51036C33.9832 8.51036 33.5426 8.73062 32.6616 9.11607C32.1844 9.33633 31.6337 9.59329 31.0097 9.88697C30.3856 10.2174 29.6698 10.6028 28.8622 11.0433C27.2102 11.8693 25.283 12.9706 23.1905 14.3472C21.0981 15.7238 18.7303 17.3757 16.4727 19.4682C14.16 21.5606 11.9023 24.0385 10.0852 27.012C8.26804 29.9855 7.05664 33.5096 7.00157 37.254C6.94651 37.4743 6.94649 37.7496 6.94649 37.9148L7.00157 38.6306C7.05664 39.1262 7.05664 39.6218 7.11171 40.0623L7.38703 41.4389L7.71741 42.8155C8.32311 44.6326 9.09403 46.4498 10.1403 48.1568C12.1776 51.5157 15.041 54.4892 18.2898 56.9671C21.4835 59.5 25.0076 61.7026 28.6419 63.4647C32.2761 65.2818 35.9655 66.8236 39.5997 68.0901C46.9784 70.6781 54.0817 72.275 60.2489 73.3212C63.2774 73.8168 66.1408 74.2023 68.6738 74.5326C71.2067 74.808 73.4093 75.0282 75.2264 75.1384C77.0436 75.3035 78.4752 75.3586 79.4664 75.4137C80.4025 75.4687 80.9531 75.5238 80.9531 75.5238C80.9531 75.5238 80.4025 75.5238 79.4664 75.5238C78.4752 75.5238 77.0435 75.6339 75.1714 75.5789C73.3542 75.5238 71.1517 75.4687 68.5636 75.3035C66.0307 75.1383 63.1673 74.9732 60.0286 74.5326C56.89 74.1472 53.531 73.5965 50.0069 72.8256C46.4828 72.0547 42.7935 71.1737 38.994 69.9072C35.2496 68.6407 31.4502 67.2091 27.7058 65.3369C23.9614 63.5197 20.3272 61.3172 16.9682 58.6741C13.6093 56.031 10.5807 52.8372 8.3231 49.203C7.22181 47.3859 6.39586 45.4035 5.79015 43.3662Z" fill="#3A261B"/>
<path d="M73.0255 2.78366C70.4925 2.78366 68.0697 2.78367 65.7019 2.89379C61.0215 3.05899 56.5612 3.44444 52.4314 3.99508C48.3566 4.54573 44.6123 5.2065 41.3084 5.86728C38.0596 6.58311 35.1962 7.35401 32.8835 8.01479C30.5708 8.67556 28.7537 9.28127 27.5423 9.72179C26.3309 10.1623 25.6701 10.3826 25.6701 10.3826C25.6701 10.3826 26.3309 10.1072 27.4872 9.61166C28.6986 9.11608 30.4607 8.40024 32.7734 7.62934C37.3437 6.03247 44.0616 4.10521 52.2662 2.78366C56.3961 2.17795 60.8563 1.62731 65.6469 1.35199C68.0146 1.18679 70.4925 1.07667 72.9704 1.0216C75.5034 0.966538 78.0364 1.0216 80.6795 1.13173C91.0866 1.57225 102.21 3.11405 112.892 6.25273C118.233 7.90466 123.52 9.88698 128.365 12.4199C133.266 14.9529 137.891 17.9815 141.691 21.7258C145.49 25.3601 148.464 29.8754 149.565 34.721C150.171 37.1439 150.281 39.5117 150.006 41.8244C149.73 44.1371 149.014 46.2846 148.133 48.2118C146.316 52.1214 143.673 55.0398 141.195 57.2975C138.662 59.6102 136.24 61.3172 134.147 62.5837C133.156 63.2444 132.22 63.7951 131.394 64.2356C130.568 64.6761 129.852 65.0616 129.246 65.3369C128.09 65.8875 127.484 66.2179 127.484 66.2179C127.484 66.2179 128.09 65.8875 129.191 65.2268C130.348 64.566 131.944 63.5748 133.927 62.2533C135.909 60.8767 138.277 59.1146 140.645 56.7468C141.195 56.1411 141.801 55.5354 142.407 54.8746C142.682 54.5443 142.957 54.2139 143.233 53.8284C143.526 53.4613 143.802 53.0942 144.059 52.7271C145.16 51.2404 146.261 49.5885 147.032 47.7163C147.803 45.8991 148.464 43.8617 148.629 41.7142C148.849 39.5667 148.629 37.254 148.078 35.1065C146.922 30.6463 144.059 26.5164 140.369 23.0474C136.735 19.5233 132.275 16.6599 127.484 14.2371C122.694 11.8142 117.573 9.88698 112.286 8.29011C101.824 5.15143 90.8664 3.4995 80.5693 3.00392C78.0364 2.89379 75.4483 2.83873 73.0255 2.78366Z" fill="#3A261B"/>
<path d="M89.9847 75.9092C92.8481 75.5238 95.7114 75.0282 98.5748 74.4776C101.383 73.9269 104.191 73.3212 107 72.6054L107.881 72.3851L108.101 73.2662C108.266 73.7617 108.541 74.3674 108.762 74.9732C109.055 75.5238 109.367 76.0744 109.698 76.6251C110.304 77.7264 111.074 78.7726 111.9 79.7087C113.552 81.691 115.48 83.398 117.572 84.8848C119.664 86.3715 121.977 87.5829 124.345 88.6291C125.501 89.1247 126.713 89.6203 127.979 90.0058L129.411 90.5013C129.227 90.1342 129.044 89.7671 128.86 89.4C128.346 88.2988 127.851 87.1975 127.373 86.0962C126.492 83.8385 125.722 81.5258 125.116 79.158C124.51 76.7903 124.07 74.3124 124.015 71.8895C124.015 70.6231 124.015 69.4116 124.235 68.1452C124.308 67.5211 124.418 66.9154 124.565 66.328C124.73 65.7223 124.951 65.1166 125.171 64.5109L125.226 64.2356L125.501 64.1255C128.695 62.5286 131.889 60.7115 134.972 58.7842C136.459 57.8481 138.001 56.8019 139.433 55.7006C140.809 54.5442 142.241 53.3879 143.287 51.8461C142.351 53.443 141.029 54.8196 139.708 56.031C138.331 57.2424 136.9 58.3988 135.413 59.445C132.55 61.5925 129.521 63.4647 126.382 65.2267C125.722 67.3192 125.501 69.5768 125.666 71.7794C125.832 74.0921 126.327 76.4048 126.933 78.6625C127.539 80.9201 128.365 83.1227 129.246 85.3253C129.723 86.3899 130.218 87.4544 130.732 88.519C131.228 89.5652 131.779 90.6665 132.329 91.6577L133.596 93.8052L131.173 93.1995L129.246 92.6488L127.263 92.0431C125.997 91.6026 124.73 91.107 123.464 90.6115C120.986 89.5102 118.563 88.1886 116.361 86.5917C115.81 86.2063 115.259 85.7658 114.709 85.3803C114.195 84.9398 113.681 84.4809 113.167 84.0037C112.139 83.086 111.203 82.0765 110.359 80.9752C109.478 79.929 108.707 78.7726 107.991 77.5612C107.66 76.9738 107.348 76.3681 107.055 75.7441C106.908 75.3402 106.761 74.9364 106.614 74.5326C104.045 75.12 101.438 75.6156 98.795 76.0194C95.9317 76.515 93.0133 76.8453 90.0948 77.0656C87.1764 77.3409 84.258 77.451 81.3396 77.5061C79.9079 77.5428 78.4579 77.5428 76.9895 77.5061C75.5027 77.5061 74.0711 77.4511 72.6394 77.396C75.5028 77.2308 78.4212 77.1207 81.3396 76.8453C84.2029 76.6251 87.1214 76.2947 89.9847 75.9092Z" fill="#3A261B"/>
</g>
<defs>
<filter id="filter0_d_21364_65789" x="0.850781" y="0.8" width="171.498" height="119.205" filterUnits="userSpaceOnUse" color-interpolation-filters="sRGB">
<feFlood flood-opacity="0" result="BackgroundImageFix"/>
<feColorMatrix in="SourceAlpha" type="matrix" values="0 0 0 0 0 0 0 0 0 0 0 0 0 0 0 0 0 0 127 0" result="hardAlpha"/>
<feOffset dx="9" dy="13"/>
<feGaussianBlur stdDeviation="6.6"/>
<feComposite in2="hardAlpha" operator="out"/>
<feColorMatrix type="matrix" values="0 0 0 0 0 0 0 0 0 0 0 0 0 0 0 0 0 0 0.15 0"/>
<feBlend mode="normal" in2="BackgroundImageFix" result="effect1_dropShadow_21364_65789"/>
<feBlend mode="normal" in="SourceGraphic" in2="effect1_dropShadow_21364_65789" result="shape"/>
</filter>
</defs>
</svg>
