<?xml version="1.0" encoding="UTF-8" standalone="no"?>
<!-- Created with Inkscape (http://www.inkscape.org/) -->

<svg
   version="1.1"
   id="svg1"
   width="503.84"
   height="453.01334"
   viewBox="0 0 503.84 453.01334"
   sodipodi:docname="Tim_three-quarter-half-RGB.eps"
   xmlns:inkscape="http://www.inkscape.org/namespaces/inkscape"
   xmlns:sodipodi="http://sodipodi.sourceforge.net/DTD/sodipodi-0.dtd"
   xmlns="http://www.w3.org/2000/svg"
   xmlns:svg="http://www.w3.org/2000/svg">
  <defs
     id="defs1" />
  <sodipodi:namedview
     id="namedview1"
     pagecolor="#ffffff"
     bordercolor="#000000"
     borderopacity="0.25"
     inkscape:showpageshadow="2"
     inkscape:pageopacity="0.0"
     inkscape:pagecheckerboard="0"
     inkscape:deskcolor="#d1d1d1">
    <inkscape:page
       x="0"
       y="0"
       inkscape:label="1"
       id="page1"
       width="503.84"
       height="453.01334"
       margin="0"
       bleed="0" />
  </sodipodi:namedview>
  <g
     id="g1"
     inkscape:groupmode="layer"
     inkscape:label="1">
    <g
       id="group-R5">
      <path
         id="path2"
         d="m 2738.25,155.07 c -0.46,-0.129 -0.91,-0.25 -1.36,-0.371 3.04,-0.308 6.04,-0.558 8.92,-0.75 l -7.56,1.121"
         style="fill:#ffffff;fill-opacity:1;fill-rule:nonzero;stroke:none"
         transform="matrix(0.13333333,0,0,-0.13333333,0,453.01333)" />
      <path
         id="path3"
         d="m 2777.18,1482.1 c -112.95,101.14 -260.84,177.91 -399.33,233.95 l -69.04,21.51 -91.5,36.59 -172.17,-32.05 -880.35,-78.34 c -82.21,-69.09 -186.763,-174.32 -242.009,-259.9 -1.484,-2.28 -7.176,-11.94 -7.176,-11.94 l 26.454,-14.09 c 0,0 -2.11,-2.71 -4.356,-5.72 l 4.317,-0.27 c 29.257,-4.11 111.05,-32.75 157.25,-92.55 l -0.6,-5.08 c -69.81,-231.48 -163.525,-639.608 -90.7,-989.101 11.61,-55.648 22.53,-137.871 22.53,-137.871 l 34.21,-15.109 c 153.15,-58.1095 822.63,-216.1407 1672.18,22.57 -36.89,3.61 -84.73,16.34 -128.95,52.59 -74.96,61.492 -72.19,140.711 -57.72,194.68 l -3.38,10.851 c -68.42,266.442 60.66,487.461 97.27,542.95 l 0.49,2.492 c -25.29,19.238 -50.25,40.289 -74.46,62.298 l 1.63,7.48 c 190.4,106.55 282.55,283.26 306.53,335.36 l 2.88,-1.08 12.15,24.69 c 0,0 -79.18,61.94 -116.15,95.09"
         style="fill:#ffffff;fill-opacity:1;fill-rule:nonzero;stroke:none"
         transform="matrix(0.13333333,0,0,-0.13333333,0,453.01333)" />
      <path
         id="path4"
         d="m 929.09,1358.74 c -11.797,-19.76 -24.277,-38.12 -34.141,-58.99 l -4.765,-3.69 c -82.454,56.86 -176.719,86.71 -235.098,100.97 l -1.484,5.25 c 88.398,125.89 47.246,230.41 47.246,230.41 0,0 131.086,220.69 -4.09,237.25 -63.957,7.83 -95.988,-29.24 -111.945,-70.5 l -3.594,7.33 c 0,0 -47.735,216.4 -123.555,210.37 -53.496,-4.29 -62.715,-76.94 -52.676,-135.73 10.09,-58.73 23.313,-177.76 23.313,-177.76 0,0 -114.563,223.76 -210.813,172.05 -81.453,-43.83 7.09,-148.03 7.09,-148.03 l 45.332,-133.85 -0.887,-2.24 c -35.16,22.37 -182.7535,111.91 -222.0308,66.39 -61.711,-71.48 39.9687,-140.51 39.9687,-140.51 l 115.3711,-94.93 c 0,0 23.086,-182.91 196.789,-229.97 l 6.082,-1.72 C 443.516,1089.73 524.5,931.898 673.191,858.609 c 153.332,-75.507 263.086,-61.988 318.625,-44.968 0,0 19.834,71.629 30.694,148.73 10.87,77.109 65.14,268.229 65.14,268.229 l 5.45,70.57 -111.842,53.2 -52.168,4.37"
         style="fill:#72462c;fill-opacity:1;fill-rule:nonzero;stroke:none"
         transform="matrix(0.13333333,0,0,-0.13333333,0,453.01333)" />
      <path
         id="path5"
         d="m 1518.68,1538.79 c 28.57,-36.85 66.25,-70.95 102.6,-59.85 44.71,13.67 91.68,68.92 121.17,109.37 l -223.77,-49.52"
         style="fill:#72462c;fill-opacity:1;fill-rule:nonzero;stroke:none"
         transform="matrix(0.13333333,0,0,-0.13333333,0,453.01333)" />
      <path
         id="path6"
         d="m 3609.7,1741.72 c -158.29,116.31 -383.79,62.07 -480.99,12.92 -146.78,-68.23 -298.18,-199.27 -298.18,-199.27 l -51.78,-74.19 99.2,-95.01 36.78,-60.75 c -5.34,6.98 -10.82,14.03 -16.59,21.19 -2.45,3.03 -12.14,11.5 -15.69,14.58 l -5.04,0.22 c -25.35,-54.47 -117.58,-228.14 -305.64,-333.37 l -3.97,-5.32 c 24.45,-22.33 49.69,-43.759 75.27,-63.29 l 2.72,-1.129 C 2611.67,907.309 2477.32,683.488 2546.84,412.82 l 4.01,-8.492 c -15.02,-54.008 -18.96,-134.68 57.09,-197.039 88.85,-72.91 192.44,-50.687 192.44,-50.687 0,0 53.16,-46.34 150.86,37.769 77.21,66.488 97.83,124.309 87.86,154.867 110.14,80.223 221.93,168.883 313.78,257.223 225.5,216.879 606.57,878.189 256.82,1135.259"
         style="fill:#72462c;fill-opacity:1;fill-rule:nonzero;stroke:none"
         transform="matrix(0.13333333,0,0,-0.13333333,0,453.01333)" />
      <path
         id="path7"
         d="m 2542.8,2475.64 c -4.51,55.37 -5.58,134.24 -36.15,240.19 -7.36,25.56 -18.29,55.23 -32.75,87.46 66.72,104.54 159.65,303.23 22.97,449.03 -150.59,160.59 -364.54,77.86 -469.36,21.29 -47.1,23.01 -97.65,42.44 -152.01,56.77 -87.14,22.99 -119.25,39.96 -234.9,38.6 -150.72,-1.75 -271.55,-45.11 -368.38,-111.81 3.15,17.85 3.75,28.52 3.75,28.52 0,0 -241.77,103.86 -357.513,-46.84 -153.117,-199.35 27.109,-377.38 27.109,-377.38 0,0 18.086,10.51 45.289,28.77 C 900.672,2679.03 886.277,2477.8 886.277,2477.8 l 3.692,-8.72 c 41.094,5.04 70.683,1.9 90.273,-2.62 l 7.852,5.07 c 64.326,5.52 158.516,7.99 286.476,-2.07 1.19,-0.11 2.4,-0.21 3.65,-0.32 l 83.99,-12.92 c 0,0 180.69,43.12 477.57,19.24 296.88,-23.94 364.07,-54.89 364.07,-54.89 l 8.92,0.69 c 74.39,21.28 164.15,55.38 252.97,30.37 30.09,-8.47 79.61,-6.96 77.06,24.01"
         style="fill:#72462c;fill-opacity:1;fill-rule:nonzero;stroke:none"
         transform="matrix(0.13333333,0,0,-0.13333333,0,453.01333)" />
      <path
         id="path8"
         d="m 1000.85,2969.32 c -2.608,0.76 -4.034,1.36 -4.034,1.36 0,0 -56.093,60.47 9.024,159.25 56.43,85.58 126.81,59.65 139.01,54.3 l -144,-214.91"
         style="fill:#ebd6b5;fill-opacity:1;fill-rule:nonzero;stroke:none"
         transform="matrix(0.13333333,0,0,-0.13333333,0,453.01333)" />
      <path
         id="path9"
         d="m 2159.13,2442.51 c 0,0 121.44,98.44 258.73,68.33 150.15,-32.94 305.55,-171.1 195.38,-453.15 -100.7,-257.82 -523.36,-295.22 -523.36,-295.22 l -21.63,0.98 c -144.13,-105.55 -374.44,-235.51 -615.48,-215.62 -260.02,21.46 -388.1,214.35 -422.23,275.09 l -0.96,1.74 c -34.975,10.61 -162.978,61.19 -237.803,248.81 -87.257,218.8 74.727,388.23 74.727,388.23 l 51.609,-2.71 212.787,-16.12 348.88,33.5 340.58,2.22 269.73,-12.44 69.04,-23.64"
         style="fill:#ebd6b5;fill-opacity:1;fill-rule:nonzero;stroke:none"
         transform="matrix(0.13333333,0,0,-0.13333333,0,453.01333)" />
      <path
         id="path10"
         d="m 1908.76,2483.65 c -3.33,0.26 -6.72,0.54 -10.11,0.81 -181.31,14.02 -310.64,11.03 -394.55,4.6 l -0.07,-0.43 c 0,0 23.86,420.08 236.94,395.76 180.18,-20.6 167.77,-401.08 167.77,-401.08 l 0.02,0.34"
         style="fill:#ffffff;fill-opacity:1;fill-rule:nonzero;stroke:none"
         transform="matrix(0.13333333,0,0,-0.13333333,0,453.01333)" />
      <path
         id="path11"
         d="m 1279.59,2482.55 c -2.4,0.2 -4.87,0.4 -7.31,0.61 -130.47,10.8 -223.77,5.91 -284.362,-1.74 l -0.059,-0.37 c 0,0 23.581,410.07 176.861,389.66 129.61,-17.23 114.81,-388.52 114.81,-388.52 l 0.06,0.36"
         style="fill:#ffffff;fill-opacity:1;fill-rule:nonzero;stroke:none"
         transform="matrix(0.13333333,0,0,-0.13333333,0,453.01333)" />
      <path
         id="path12"
         d="m 2340.82,2917.13 c -41.39,105.5 -111.15,168.65 -166.9,210.82 l 14.42,11.35 c 0,0 135.55,93.79 219.06,16.09 88.41,-82.25 -40.75,-206.79 -40.75,-206.79 l -25.83,-31.47"
         style="fill:#ebd6b5;fill-opacity:1;fill-rule:nonzero;stroke:none"
         transform="matrix(0.13333333,0,0,-0.13333333,0,453.01333)" />
      <path
         id="path13"
         d="m 1164.77,2155.93 c -11.53,-5.8 -32.68,-21.21 -49.9,-34.89 2.85,-37.1 11.04,-121.39 31.03,-199.18 13.43,-52.24 37,-99.29 47.46,-119.87 l 160.05,-2.39 c 15.72,31.26 52.21,130.59 66.63,304.81 -54.25,18.39 -178.76,56.95 -255.27,51.52"
         style="fill:#ffffff;fill-opacity:1;fill-rule:nonzero;stroke:none"
         transform="matrix(0.13333333,0,0,-0.13333333,0,453.01333)" />
      <path
         id="path14"
         d="m 1704.86,1037.28 h 141.26 l 0.47,-288.901 -137.21,1.332 -4.52,287.569"
         style="fill:#71141b;fill-opacity:1;fill-rule:nonzero;stroke:none"
         transform="matrix(0.13333333,0,0,-0.13333333,0,453.01333)" />
      <path
         id="path15"
         d="m 1237.54,1221.87 -14.82,-343.761 -5.64,-131.3 144.09,-5.071 -13.44,477.772 -110.19,2.36"
         style="fill:#71141b;fill-opacity:1;fill-rule:nonzero;stroke:none"
         transform="matrix(0.13333333,0,0,-0.13333333,0,453.01333)" />
      <path
         id="path16"
         d="m 1388.36,1220.88 12.21,-391.15 111.76,1.372 -8.14,381.638 -115.83,8.14"
         style="fill:#71141b;fill-opacity:1;fill-rule:nonzero;stroke:none"
         transform="matrix(0.13333333,0,0,-0.13333333,0,453.01333)" />
      <path
         id="path17"
         d="m 1542.87,1219.51 9.47,-495.069 107.05,12.2 -4.06,484.239 -112.46,-1.37"
         style="fill:#71141b;fill-opacity:1;fill-rule:nonzero;stroke:none"
         transform="matrix(0.13333333,0,0,-0.13333333,0,453.01333)" />
      <path
         id="path18"
         d="m 1702.44,1090.86 147.47,2.03 v 129.34 l -148.84,-4.79 1.37,-126.58"
         style="fill:#71141b;fill-opacity:1;fill-rule:nonzero;stroke:none"
         transform="matrix(0.13333333,0,0,-0.13333333,0,453.01333)" />
      <path
         id="path19"
         d="m 2140.84,1239.81 -258.8,-6.74 13.53,-113.85 260.22,6.79 -14.95,113.8"
         style="fill:#71141b;fill-opacity:1;fill-rule:nonzero;stroke:none"
         transform="matrix(0.13333333,0,0,-0.13333333,0,453.01333)" />
      <path
         id="path20"
         d="m 1906.42,1080.22 9.35,-355.38 111.7,4.082 -1.21,356.698 -119.84,-5.4"
         style="fill:#71141b;fill-opacity:1;fill-rule:nonzero;stroke:none"
         transform="matrix(0.13333333,0,0,-0.13333333,0,453.01333)" />
      <path
         id="path21"
         d="m 3463.17,1295.83 c 0.84,32.74 1.77,65.69 3.18,99.78 0.26,6.31 0.42,12.24 0.62,18.31 51.6,3.08 98.97,4.87 141.11,5.56 -0.53,-42.27 -1.78,-84.72 -3.81,-127.25 -28.07,5.21 -65.96,7.78 -117.32,4.95 -8.33,-0.46 -16.2,-0.91 -23.78,-1.35 z M 3381.4,910.531 c -4.32,-34.801 -9.2,-69.812 -14.75,-104.922 -4.16,0.25 -8.43,0.282 -12.94,-0.218 -37.05,-4.102 -76.98,-9.379 -118.82,-15.582 3.63,33.339 6.92,66.902 9.81,102 47.08,7.429 92.83,13.73 136.7,18.722 z m -130.24,538.449 c -2.14,37.84 -4.39,73.33 -6.19,108.32 54.08,6.12 109.51,12.04 162.39,17.26 1.25,-34.05 2.22,-71.32 2.73,-111.23 -50.07,-3.83 -103.27,-8.52 -158.93,-14.35 z m 6.52,-171.53 c -0.64,42.87 -2.01,81.92 -3.73,118.25 54.77,6.03 107.17,10.78 156.47,14.43 0.03,-37.52 -0.39,-76.91 -1.43,-117.88 -45.69,-3.41 -85.72,-7.57 -151.31,-14.8 z m 139.57,-210.79 c -2.59,-32.44 -5.63,-65.3 -9.19,-98.492 -45.38,-4.156 -91.72,-9.418 -138.9,-15.719 2.02,31.09 3.75,63.821 5.15,98.911 51.49,6.65 99.12,11.62 142.94,15.3 z m -141.11,37.9 c 0.49,17.19 0.93,34.9 1.28,53.32 0.38,20.09 0.56,39.22 0.62,57.77 51.99,6.09 102.09,11.34 149,15.66 -1.43,-36.01 -3.33,-72.97 -5.82,-110.69 -44.4,-4.35 -92.75,-9.51 -145.08,-16.06 z m 77.62,-478.208 C 3248.02,543.891 3136.55,467.539 3023.5,397.48 c -1.5,0.45 -3,1.04 -4.53,1.391 0.94,24.141 -2.73,53.688 -21.54,74.719 -1.9,2.129 -3.94,4.031 -6.04,5.762 2.46,6.5 4.68,13.347 6.32,21.019 1.1,5.098 2,10.277 3.04,15.399 47.73,7.05 93.08,13.218 132.4,18.601 -2.86,-11.84 -5.82,-23.582 -8.91,-35.16 0,0 28.03,8.848 53.68,41.34 19.74,2.738 38.81,5.429 57,8.129 0,0 -8.74,24.308 -31.41,37.601 5.93,15.508 10.7,33.52 13.4,54.68 3.72,29.117 7.25,57.051 10.57,84.551 45.13,9.238 88.57,17.129 129.58,23.179 -4,-22.48 -8.22,-44.953 -12.8,-67.371 0,0 27.54,15.5 54.36,72.918 13.12,1.571 26.04,3 38.5,4.082 0,0 -8.56,15.61 -25.04,28.95 11.64,32.769 22.14,75.058 28.91,129.3 25.65,2.27 50.52,4.032 74.31,5.141 0,0 -5.45,47.699 -68.38,50.289 3.35,34.72 5.9,67.51 7.88,98.93 44.23,2.81 83.9,4.29 118.63,4.83 0,0 -14.44,59.51 -102.13,51.48 -4.42,-0.4 -8.97,-0.82 -13.48,-1.24 1.77,37.86 2.89,74.18 3.83,110.04 52.82,4.27 100.25,7.16 140.06,8.53 -2.15,-35.15 -4.8,-70.31 -7.96,-105.45 0,0 47.94,62.31 61.01,106.33 10.63,-0.07 20.39,-0.28 28.95,-0.71 0,0 -1.71,14.84 -25.15,28.9 2.56,48.86 4.13,97.61 4.73,146.13 6.48,-0.05 12.85,-0.12 18.98,-0.23 0,0 -5.38,11.8 -18.71,24.43 0.01,0.73 0.02,1.46 0.03,2.18 0.23,39.08 -56.47,115.13 -56.47,115.13 0.82,-29.77 1.19,-59.71 1.25,-89.75 -10.58,2.05 -22.35,3.09 -35.72,2.37 -32.44,-1.77 -67.46,-3.84 -104.62,-6.36 0.2,44.83 -1.41,81.93 -4.32,112.41 53.21,4.91 102,8.88 141.63,11.29 0,0 -28.26,45.82 -112.95,39.78 -11.81,-0.84 -23.52,-1.68 -35.19,-2.52 -19.37,106.19 -57.77,93.1 -57.77,93.1 1.91,-26.21 3.98,-58.91 5.81,-96.92 -58.11,-4.33 -113.6,-8.64 -164.51,-12.7 -13.2,80.04 -60.77,80.8 -60.77,80.8 1.94,-21.97 4.3,-50.78 6.71,-85.16 -64.05,-5.24 -118.2,-9.88 -157.64,-13.39 -14.45,24.22 -44.92,20.9 -44.92,20.9 0.06,-0.65 0.8,-9.31 1.88,-24.84 -14.72,-1.39 -23.86,-2.34 -26.14,-2.7 l -6.41,-67.76 c 10.86,1.72 23.19,3.56 36.55,5.48 1.63,-30.34 3.34,-67.45 4.74,-110.18 -25.3,-4.09 -50.84,-8.54 -76.49,-13.18 l -8.2,6.42 c -0.72,0.56 -67.53,52.88 -105.97,86.2 59.92,53.08 201.17,172.22 336.28,235.03 l 0.81,0.4 c 43.86,22.18 121.19,47.67 206.75,52.68 67.37,3.93 164.65,-3.82 245.42,-63.22 78.58,-57.73 122.04,-141.92 129.21,-250.18 18.78,-283.92 -217.96,-678.62 -388.78,-842.928 z M 2888.17,481.18 c -1.68,-0.61 -3.36,-1.219 -4.96,-1.84 -10.1,13.031 -20.45,23.68 -30.6,32.281 13.78,3.949 25.91,5.688 30.58,3.66 5.27,-6.461 6.19,-20.601 4.98,-34.101 z m 63.73,81.769 c -11.36,-1.871 -22.84,-3.879 -34.28,-5.84 -7.14,5.582 -19.72,12.243 -39.47,12.969 26.67,28.563 49.56,58.762 69.42,89.602 6.13,1.558 12.26,3.121 18.41,4.672 -4.19,-33.883 -8.81,-67.731 -14.08,-101.403 z m 5.09,-125.508 c 7.74,-8.652 8.86,-27.812 7.14,-45.132 -10.63,-4.25 -20.88,-9.809 -30.43,-15.868 -6.27,20.911 -13.48,39.348 -21.35,55.5 21.46,6.957 40.12,9.239 44.64,5.5 z m 210.14,275.168 c -6.01,-41.039 -13.02,-81.41 -21.13,-120.718 -2.16,-0.321 -4.32,-0.641 -6.51,-0.942 -37.43,-5.148 -81.38,-11.39 -128.01,-18.551 6.17,35.563 11.54,71.372 15.97,107.321 47.27,11.652 94.07,22.769 139.68,32.89 z m -123.88,142.672 c 48.26,9.758 96.21,18.789 143.25,26.91 -2.89,-33.961 -6.32,-67.863 -10.34,-101.5 -45.53,-7.371 -92.7,-15.66 -140.57,-24.679 3.11,33.207 5.71,66.359 7.66,99.269 z m -3.05,566.949 c -1.74,42.1 -3.16,79.01 -3.6,109.56 45.03,6.05 97.81,12.64 153.73,19.22 1.96,-32.9 3.83,-69.16 5.4,-108.16 -50.41,-5.84 -102.39,-12.64 -155.53,-20.62 z m 106.44,-157.08 c -36.83,-4.07 -69.93,-8.61 -99.89,-13.47 -1.25,41.06 -2.77,79.78 -4.26,115.78 52.99,8.34 104.89,15.56 155.15,21.71 1.15,-37.57 1.98,-77.11 2.33,-118.13 -16.35,-1.8 -33.99,-3.77 -53.33,-5.89 z m 49.86,-221.77 c -1.34,-32.81 -3.08,-65.919 -5.3,-99.11 -45.36,-6.801 -91.56,-14.661 -138.42,-23.391 8.56,39.551 13.38,74.441 16.08,101.661 44.6,8.04 87.17,14.95 127.64,20.84 z m -124.22,34.12 c 0.04,2.48 0.05,4.26 0.04,5.03 l -0.03,2.95 -0.64,2.88 c -0.49,2.15 -6.06,25.85 -22.64,64.77 -0.16,11.7 -0.37,23.29 -0.6,34.72 51.05,7.58 101.97,14.53 151.7,20.78 -0.14,-36.45 -0.71,-73.8 -1.76,-111.7 -39.96,-5.53 -82.07,-11.98 -126.07,-19.43 z m -141.02,270.94 c 21.79,4.01 43.49,7.89 65.02,11.51 0.78,-33.52 1.29,-69.7 1.47,-107.81 -17.84,29.46 -39.69,61.83 -66.49,96.3 z m 2.28,-1133.51 c -73.5,-63.289 -111.31,-40.578 -115.62,-37.621 l -8.89,8.761 -14.25,-2.929 c -0.88,-0.2 -92.55,-18.153 -169.65,45.129 -105.65,86.652 -23.66,249.351 -20.38,254.8 l -43.53,-4.55 c -39.84,264.378 112.23,472.218 113.89,474.441 l -0.69,0.508 7.71,10.832 c -25.21,17.937 -49.04,36.519 -71.48,55.229 151.4,93.51 237.37,226.55 275.46,298.42 97.7,-124.95 127.26,-221.69 131.93,-238.85 -0.67,-34.95 -13.35,-352.202 -243.8,-530.659 l -65.5,-34.902 c 5.85,-0.867 139.03,-22.687 178.53,-173.461 l -17.45,-66 c 46.24,42.461 123.22,91.16 144.5,62.211 13.36,-18.18 -18.14,-67.418 -80.78,-121.359 z m -99.33,1184.38 c 4.46,-3.58 8.72,-6.99 12.73,-10.19 -15.16,-34.54 -101.4,-215.07 -287.72,-324.35 -7.47,6.94 -14.68,13.81 -21.72,20.64 83.12,58.47 213.42,166.31 296.71,313.9 z M 1055.03,167.84 c -3.85,27.25 -11.94,81.621 -20.52,122.789 -105.752,507.551 168.47,1199.991 171.05,1206.451 l -81.22,-69.53 c -27.83,25.21 -59.07,42.27 -83.18,52.92 -4.91,2.18 -10.06,4.35 -15.26,6.44 44.16,45.76 98.14,94.8 148.8,137.28 46.46,-33.69 103.04,-63.66 170.74,-82.55 32.91,-108.94 110.1,-193.06 218.26,-196.66 4.73,-0.16 9.43,-0.23 14.12,-0.23 141.82,0 272.62,72.09 379.04,209.23 41.59,53.57 79.66,116.62 107.25,166.17 30.24,6.5 79.14,17.63 131.96,31.66 176.32,-60.17 419.07,-161 563,-289.91 3.58,-3.21 7.58,-6.7 11.81,-10.34 -79.33,-144.89 -199.43,-265.02 -277.56,-321.38 -69.44,73.64 -108.8,131.08 -109.83,132.53 l -146.1,98.7 c 6.86,-9.71 193.11,-265.58 373.3,-410.84 -47.24,-85.351 -152.12,-315.101 -92.47,-567.031 -10.17,-63.211 1.42,-138.898 72.51,-197.199 8.27,-6.801 16.66,-12.668 25.08,-18.059 C 1856.4,-28.8398 1252.24,97.7305 1055.03,167.84 Z M 970.711,836 C 918.016,823 820.047,816.5 685.184,882.949 471.602,988.168 381.816,1300.01 381.816,1300.01 l -12.675,-67.9 c -120.137,54.74 -139.114,187.72 -139.914,193.82 l -1.348,10.69 -123.691,101.78 -1.934,1.46 c -12.0313,8.26 -44.0235,35.91 -47.6759,64.24 -1.6015,12.38 2.6367,24.21 12.9492,36.14 14.6485,16.98 134.8167,-25.67 218.1057,-81.04 l 5.957,50.1 -42.988,131.98 -3.36,3.94 c -13.398,15.78 -39.453,56.88 -34.461,83.3 1.141,6.11 4.422,15.16 19.539,23.29 9.688,5.2 19.739,5.9 31.621,2.2 57.344,-17.86 148.059,-151.28 168.184,-190.48 l 25.129,43.12 c -0.539,4.89 -13.43,120.5 -23.547,179.32 -6.758,39.7 -2.48,77.74 10.684,94.65 4.629,5.97 10,8.89 17.422,9.48 0.351,0.04 0.703,0.05 1.054,0.05 28.781,0 75.774,-97.83 96.992,-185.71 -13.601,-37.82 -15.711,-76.58 -15.898,-93.93 l -22.109,-33.07 C 430.977,1652.56 398.387,1570 393.602,1528.27 c 0,0 65.683,81.04 148.671,98.86 l 10.743,2.3 43.554,65.26 -0.332,8.78 c -0.906,23.92 4.102,92.79 37.754,123.74 14.914,13.71 34.375,18.84 59.465,15.81 22.363,-2.75 29.266,-11.84 32.52,-18.44 17.839,-36.3 -17.598,-125.97 -48.45,-178.04 l -6.601,-11.4 4.609,-12.21 c 1.375,-3.66 31.934,-88 -36.875,-194.28 l -43.328,-47.1 c 130.879,-40.64 281.426,-53.97 361.102,-181.07 0,0 -16.399,33.6 -46.758,73.49 9.433,17.72 25,42.09 33.047,55.1 2.754,4.44 5.402,8.91 8.105,13.38 27.676,-7.42 81.392,-29.72 117.402,-68.54 C 1034.81,1166.68 993.758,1011.22 970.711,836 Z m 9.082,599.81 c 27.447,-7.12 82.647,-29.65 119.177,-69.47 -2.99,-8.4 -6.21,-17.64 -9.62,-27.64 -25.45,21.03 -52.69,35.78 -74.24,45.3 -15.786,6.98 -39.497,16.28 -60.005,19.48 6.915,10.09 15.235,20.93 24.688,32.33 z m 568.227,86.82 c 40.62,2.89 86.11,9.73 136.03,22.48 -28.16,-20.99 -59.33,-34.53 -92.03,-32.56 -17.17,1.03 -31.74,4.4 -44,10.08 z m -79.61,-0.9 c 2.39,-0.13 4.84,-0.22 7.29,-0.31 27.81,-35.33 67.43,-60.26 113.04,-63.01 3.32,-0.21 6.6,-0.3 9.86,-0.3 72.2,0 141.08,57.77 194.08,122.12 54.49,21.26 112.91,49.49 174.86,86.45 -69.8,-116.29 -201.86,-274.14 -402.02,-267.49 -82.04,2.74 -135.48,52.86 -160.19,129.3 14.69,-2.39 29.8,-4.29 45.39,-5.58 5.72,-0.47 11.61,-0.86 17.69,-1.18 z m -424.71,329.85 -6.67,-3.07 c -29.37,8.79 -150.596,55.06 -222.03,234.21 -64.414,161.54 15.898,293.07 52.938,341.69 53.195,6.13 93.281,1 108.925,-1.73 -1.328,-4.98 -2.453,-10.13 -3.222,-15.58 -12.586,-89.29 126.389,-153.42 164.309,-169.17 0.22,-15.72 1.15,-32.23 3.94,-47 -27.6,-14.9 -70.03,-53.22 -75.01,-57.54 0.24,-2.79 2.98,-35.24 8.71,-77.26 -82.953,-44.5 -185.453,-26.48 -185.453,-26.48 2.801,-2.19 47.89,-36.36 111.023,-39.66 4.11,-0.22 8.29,-0.29 12.55,-0.23 4.92,-4.77 57,-56.05 98.58,-98.5 26.42,-72.6 53.75,-121.21 54.97,-123.36 l 8.48,-14.94 51.46,-0.77 c 31.55,-27.84 72.24,-42.55 125.76,-45.35 8.03,-0.42 16.36,-0.62 25,-0.46 97.07,1.84 173.52,48.99 285.97,147.81 58.27,51.19 105.5,117.04 128.75,151.66 328.37,20.3 447.1,148.35 447.1,148.35 -223.44,-113.13 -601.4,-116.11 -760.89,-65.74 1.19,13.19 2.28,26.74 3.2,40.86 -7,2.62 -165.45,59.5 -279.74,66.87 -2.61,15 -4.32,39.11 -4.29,62.87 87.27,33.31 234.63,63.35 234.63,63.35 0,0 15.2,19.45 13.53,73.78 -0.45,13.94 -8.24,28.84 -21.41,43.36 23.71,3.7 53.34,7.63 88.33,10.99 l 0.08,-0.59 c 49.93,4.78 124.61,9.24 224.42,8.35 27.94,-0.58 57.11,-1.68 87.66,-3.53 283.62,-16.91 389.31,-50.71 389.68,-50.85 l -8.81,40.17 c 42.08,24.96 121.43,61.01 206.34,42.33 82.37,-18.07 149.47,-65.54 184.08,-130.24 40.81,-76.27 38.57,-173.64 -6.64,-289.39 -77.57,-198.63 -367.42,-259.55 -467.81,-274.91 54.81,62.38 79.36,116.15 79.36,116.15 -3.6,-3.68 -364.56,-367.07 -746.67,-335.28 -290.19,23.94 -409.95,276.28 -411.13,278.83 z m 180.12,750.38 c 12.53,1.23 22.49,-6.69 30.37,-18.8 v -0.01 c 11.91,-18.29 19.03,-46.2 22.98,-66.94 -18.84,4.21 -38.24,6.9 -57.6,7.65 -11.98,0.46 -24.02,0.63 -36.02,0.5 2.87,32.28 12.02,74.84 40.27,77.6 z m -134.44,-87.55 c -20,-4.65 -38.52,-11.17 -54.64,-20.13 -5.01,-0.5 -10.16,-0.91 -15.04,-1.49 7.31,88.56 31.27,248.98 87.48,308.49 14.94,15.82 30.93,23.06 48.89,22.12 1.16,-0.07 2.34,-0.16 3.54,-0.29 29.19,-3.16 50.78,-36.12 66.2,-83.03 -14.61,10.39 -32.83,12.3 -55.59,1.33 -53.97,-25.97 -73.91,-156.38 -80.84,-227 z m 75.39,-358.48 c 76.51,5.43 201.02,-33.13 255.27,-51.52 -1.02,-12.38 -2.19,-24.27 -3.42,-35.89 -3.87,-36.48 -8.68,-69.21 -13.97,-98.37 -0.21,-1.2 -0.42,-2.47 -0.64,-3.66 -1.09,-5.95 -2.23,-11.68 -3.36,-17.33 -0.34,-1.71 -0.68,-3.5 -1.03,-5.18 -1.07,-5.24 -2.16,-10.26 -3.27,-15.24 -0.42,-1.91 -0.84,-3.88 -1.27,-5.75 -1.05,-4.66 -2.11,-9.15 -3.19,-13.57 -0.48,-1.97 -0.96,-3.95 -1.43,-5.89 -1.02,-4.14 -2.06,-8.14 -3.09,-12.05 -0.53,-1.99 -1.06,-3.96 -1.57,-5.89 -1,-3.66 -1.99,-7.22 -2.99,-10.67 -0.57,-1.96 -1.12,-3.91 -1.67,-5.79 -0.95,-3.18 -1.88,-6.29 -2.81,-9.28 -0.6,-1.95 -1.19,-3.84 -1.81,-5.71 -0.86,-2.73 -1.74,-5.43 -2.6,-8 -0.62,-1.86 -1.24,-3.64 -1.84,-5.42 -0.81,-2.3 -1.61,-4.64 -2.39,-6.78 -0.66,-1.84 -1.31,-3.55 -1.96,-5.28 -0.69,-1.85 -1.41,-3.76 -2.07,-5.49 -0.71,-1.8 -1.38,-3.45 -2.06,-5.14 -0.57,-1.39 -1.15,-2.86 -1.69,-4.14 -0.79,-1.88 -1.53,-3.55 -2.26,-5.21 -0.4,-0.88 -0.81,-1.85 -1.19,-2.67 -1.09,-2.38 -2.11,-4.54 -3.05,-6.41 l -160.05,2.39 c -8.49,16.69 -25.6,50.8 -38.92,90.98 -3.09,9.35 -6,19.02 -8.54,28.89 -1.33,5.22 -2.61,10.46 -3.85,15.71 -0.4,1.7 -0.77,3.39 -1.15,5.1 -0.83,3.55 -1.62,7.11 -2.4,10.69 -0.44,2.01 -0.85,4.02 -1.27,6.04 -0.68,3.25 -1.35,6.5 -2,9.73 -0.42,2.13 -0.83,4.26 -1.24,6.39 -0.57,3.1 -1.17,6.21 -1.74,9.29 -0.38,2.14 -0.77,4.28 -1.14,6.41 -0.55,3.06 -1.07,6.11 -1.58,9.15 -0.35,2.08 -0.69,4.16 -1.05,6.2 -0.47,3.08 -0.95,6.11 -1.42,9.13 -0.31,1.97 -0.62,3.96 -0.91,5.89 -0.48,3.12 -0.91,6.16 -1.35,9.21 -0.25,1.78 -0.52,3.58 -0.77,5.32 -0.48,3.54 -0.94,6.96 -1.38,10.37 -4.09,31.2 -6.49,57.74 -7.78,74.55 17.22,13.68 38.37,29.09 49.9,34.89 z m 476.78,360.54 c -33.69,-0.9 -66.16,-2.4 -97.02,-4.65 8.07,89.39 37.45,252.8 113.21,314.4 21.46,17.44 44.84,25.23 71.43,23.85 1.75,-0.09 3.49,-0.22 5.28,-0.38 45.2,-4.31 76.2,-42.7 97.37,-89.7 -21.15,12.82 -47.7,16.17 -81.09,4.72 -80.72,-27.66 -103.22,-182.54 -109.18,-248.24 z m 138.69,120.23 c 56.26,3.81 76.87,-99.32 80.86,-123.04 -47.51,2.23 -93.16,3.45 -136.87,3.65 -0.47,26.87 2.1,115.73 56.01,119.39 z m -772.42,267.59 c 125.26,288.84 328.26,436.55 603.3,439.06 140.11,1.23 239.47,-27.84 335.56,-67.19 l 9.19,-72.1 c 0.76,0.57 91.97,67.27 192.32,98.29 129.67,40.08 237.19,20.39 319.59,-58.5 58.33,-55.85 87.55,-119.26 86.79,-188.4 -1.66,-154.4 -173.41,-315.5 -174.88,-316.86 l 78.8,-13.13 c 29.46,-86.94 44.71,-165.91 52.52,-221.57 -26.99,13.83 -56.45,24.5 -87.79,31.36 -121.21,26.6 -228.65,-37.18 -265.98,-63.09 -37.43,8.12 -102.32,18.79 -210.44,28.2 -1.9,87.34 -21.78,390.34 -206.1,407.9 -48.42,4.59 -91.06,-8.38 -127.87,-38.34 -106.65,-86.74 -130.44,-300.27 -135.41,-368.67 -52.29,-5.91 -90.37,-12.78 -112.41,-17.33 -16.99,9.06 -35.92,17.01 -55.87,23.46 -1.94,104.74 -19.47,361.28 -143.97,374.78 -34.51,3.75 -65.28,-8.94 -92.16,-37.39 -80.1,-84.87 -100.756,-296.62 -105.393,-364.14 -16.594,2.09 -38.137,2.75 -65.656,-0.13 4.941,56.35 26.418,240.61 105.859,423.79 z m 88.66,251.26 c -35.13,-42.17 -67.17,-89.69 -95.92,-142.46 -3.529,21.12 -0.572,51.59 24.19,90.78 24.22,38.35 51.06,49.72 71.73,51.68 z M 894.539,2963.14 c -32.598,81.99 -20.754,162.06 35.227,237.99 70.344,95.42 203.824,78.67 275.914,60.69 -22.43,-17.43 -43.95,-36.54 -64.6,-57.25 -39.63,12.51 -110.5,10.12 -162.174,-71.74 -59.218,-93.68 -26.672,-158.83 -9.863,-182.58 -3.723,-8.03 -7.402,-16.14 -10.977,-24.39 -6.093,-14.04 -11.847,-28.05 -17.296,-41.99 -14.11,17.83 -32.637,45.1 -46.231,79.27 z M 3777.62,1472.89 c -8.28,125.31 -59.29,223.22 -151.6,291.05 -161.31,118.59 -392.8,74.31 -509.35,15.52 -146.76,-68.33 -294.38,-194.72 -354.85,-248.61 -127.99,105.28 -294.23,194.27 -446.24,256.72 2.17,0.74 4.35,1.49 6.5,2.24 161.81,56.9 286.54,157.86 330.44,270.26 50.78,130 36.18,229.96 -11.85,319.69 -15,28.07 -35.01,53.34 -58.93,75.24 -10.63,70.61 -38.87,198.45 -80.92,313.59 42.44,57.21 106.56,164.04 108,286.01 0.97,84.85 -33.84,161.7 -103.54,228.43 -96.66,92.54 -226.18,116.98 -374.57,70.69 -48.53,-15.14 -89.6,-31.65 -120.59,-45.54 -115.61,50.51 -228.4,90.93 -399.5,89.4 -129.98,-1.19 -246.56,-33.74 -347.67,-96.02 -22.31,7.74 -72.88,23.17 -132.23,27.48 -107.89,7.82 -192.685,-25.24 -244.626,-95.73 -148.039,-200.86 5.183,-377.82 33.562,-407.66 -54.902,-162.73 -69.226,-306.24 -72.39,-347.91 -16.243,-17.56 -167.903,-189.89 -78.703,-413.54 73.164,-183.45 194.882,-243.08 243.877,-260.24 17.92,-31.02 53.3,-84.36 109.49,-136.44 -87.41,-78.89 -176.961,-179.27 -221.922,-248.92 -1.602,-2.47 -7.762,-12.89 -7.762,-12.89 l -14.426,-24.38 25.032,-13.33 0.105,-0.07 c -2.109,-3.46 -4.227,-6.9 -6.348,-10.31 -8.027,-12.97 -16.25,-26.28 -23.554,-40.91 -28.645,29.48 -64.09,57.34 -105.52,73.4 -30.32,11.75 -54.48,19.86 -73.445,25.54 57.07,98.85 44.355,182.35 36.113,213.77 20.508,37.09 77.676,151.4 44.465,219.05 -9.348,19.05 -29.895,42.91 -74.621,48.38 -41.328,5.08 -75.957,-4.99 -102.918,-29.86 -1.094,-1 -2.043,-2.12 -3.098,-3.16 -5.457,18.13 -12.48,39.27 -20.996,60.49 -33.808,84.24 -72.219,123.55 -117.539,119.85 -22.605,-1.81 -41.953,-12.28 -55.93,-30.24 -34.011,-43.75 -24.918,-115.99 -21.316,-137.11 2.793,-16.27 5.859,-37.43 8.809,-59.4 -37.52,47.8 -74.102,77.49 -108.946,88.37 -25.644,8 -51.035,5.84 -73.476,-6.21 -32.793,-17.65 -43.75,-42.91 -47.157,-61 -9.855,-52.29 29.961,-107.8 42.989,-124.25 l 21.472,-63.4 C 154.754,1686.66 65.3125,1720.69 26.4648,1675.69 6.00391,1652 -2.86328,1624.76 0.808594,1596.89 8.03516,1542.03 60.3984,1502.94 70.5938,1495.8 l 106.6722,-87.77 c 8.191,-42.4 47.91,-191.17 205.898,-239.01 7.039,-16.73 17.156,-38.9 31.738,-68.27 62.43,-125.691 147.606,-217.828 246.297,-266.461 52.227,-25.73 141.543,-61.098 237.715,-61.098 21.445,0 43.242,1.797 65.039,5.821 C 947.09,619.02 946.785,445.77 981.414,279.57 c 11.262,-54 22.096,-135.101 22.206,-135.91 l 2.05,-15.5 49.4,-21.281 0.02,-0.098 C 1166.65,64.4414 1443.74,0 1819.28,0 c 265.37,0 579.99,32.2813 919.85,127.219 24.23,-1.957 43.93,-0.457 55.55,1.019 10.21,-5.347 26.62,-11.418 48.53,-11.418 31.33,0 73.91,12.399 125.72,57.008 59.75,51.442 94.96,105.203 99.23,150.371 96.74,73.891 196.1,158.731 303.85,262.36 92.76,89.242 197.73,237.132 273.94,385.992 66.56,130.089 143.45,322.469 131.67,500.339"
         style="fill:#100f0d;fill-opacity:1;fill-rule:nonzero;stroke:none"
         transform="matrix(0.13333333,0,0,-0.13333333,0,453.01333)" />
      <path
         id="path22"
         d="m 1174.63,2994.04 c 50.75,8.89 72.76,-10.02 86.38,-32.3 11.62,-19.04 13.41,-39.19 13.42,-39.3 l 34.1,2.02 c -0.21,2.97 -2.55,29.79 -18.84,57.43 -23.48,39.8 -64.81,61.56 -116.37,61.36 -85.54,-0.4 -121.45,-73.81 -128.48,-112.6 l 57.26,-8.3 c 0.13,0.72 15.04,61.62 72.53,71.69"
         style="fill:#100f0d;fill-opacity:1;fill-rule:nonzero;stroke:none"
         transform="matrix(0.13333333,0,0,-0.13333333,0,453.01333)" />
      <path
         id="path23"
         d="m 1708.36,3024.59 c 119.55,-2.75 185.38,-100.29 186.31,-103.63 l 42.63,-2.23 c -11.34,42.88 -91.02,151.83 -228.81,155.05 -135.84,3.08 -190.14,-83.01 -199.89,-128.94 l 62.94,-9.24 c 0.79,3.72 20.78,91.61 136.82,88.99"
         style="fill:#100f0d;fill-opacity:1;fill-rule:nonzero;stroke:none"
         transform="matrix(0.13333333,0,0,-0.13333333,0,453.01333)" />
      <path
         id="path24"
         d="m 2258.53,3151.93 c 56.82,22.57 97.2,20.82 119.99,-5.15 80.36,-91.44 -51.44,-227.27 -52.76,-228.6 l 38.55,-38.15 c 58.78,59.37 145.92,199.02 54.97,302.54 -90.57,103.17 -273.14,-29.67 -280.86,-35.37 l 32.21,-43.64 c 0.41,0.3 40.03,29.37 87.9,48.37"
         style="fill:#100f0d;fill-opacity:1;fill-rule:nonzero;stroke:none"
         transform="matrix(0.13333333,0,0,-0.13333333,0,453.01333)" />
      <path
         id="path25"
         d="m 1238.45,1842.97 c -14.96,143.05 -22.22,278.88 -22.31,279.97 l -22.32,-2.33 c 0.08,-1.11 11.24,-134.19 26.32,-278.3 l 18.31,0.66"
         style="fill:#100f0d;fill-opacity:1;fill-rule:nonzero;stroke:none"
         transform="matrix(0.13333333,0,0,-0.13333333,0,453.01333)" />
    </g>
  </g>
</svg>
