<?xml version="1.0" encoding="UTF-8" standalone="no"?>
<svg
   xmlns:dc="http://purl.org/dc/elements/1.1/"
   xmlns:cc="http://creativecommons.org/ns#"
   xmlns:rdf="http://www.w3.org/1999/02/22-rdf-syntax-ns#"
   xmlns:svg="http://www.w3.org/2000/svg"
   xmlns="http://www.w3.org/2000/svg"
   xmlns:sodipodi="http://sodipodi.sourceforge.net/DTD/sodipodi-0.dtd"
   xmlns:inkscape="http://www.inkscape.org/namespaces/inkscape"
   id="Layer_1"
   data-name="Layer 1"
   viewBox="0 0 292.58007 40.386803"
   version="1.1"
   sodipodi:docname="climate-logo.svg"
   width="292.58008"
   height="40.386803"
   inkscape:version="0.92.5 (2060ec1f9f, 2020-04-08)">
  <metadata
     id="metadata45">
    <rdf:RDF>
      <cc:Work
         rdf:about="">
        <dc:format>image/svg+xml</dc:format>
        <dc:type
           rdf:resource="http://purl.org/dc/dcmitype/StillImage" />
      </cc:Work>
    </rdf:RDF>
  </metadata>
  <sodipodi:namedview
     pagecolor="#ffffff"
     bordercolor="#666666"
     borderopacity="1"
     objecttolerance="10"
     gridtolerance="10"
     guidetolerance="10"
     inkscape:pageopacity="0"
     inkscape:pageshadow="2"
     inkscape:window-width="640"
     inkscape:window-height="480"
     id="namedview43"
     showgrid="false"
     inkscape:zoom="0.74283321"
     inkscape:cx="146.2927"
     inkscape:cy="20.1934"
     inkscape:window-x="0"
     inkscape:window-y="0"
     inkscape:window-maximized="0"
     inkscape:current-layer="Layer_1" />
  <defs
     id="defs9">
    <linearGradient
       id="linear-gradient"
       x1="-0.79326999"
       y1="936.96228"
       x2="-0.16348"
       y2="936.96228"
       gradientTransform="matrix(78.99998,0,0,-53,60.132697,49679.193)"
       gradientUnits="userSpaceOnUse">
      <stop
         offset="0"
         stop-color="#93d4d1"
         id="stop2" />
      <stop
         offset="0.49929"
         stop-color="#108dad"
         id="stop4" />
      <stop
         offset="1"
         stop-color="#22437d"
         id="stop6" />
    </linearGradient>
  </defs>
  <title
     id="title11">MITClimatePortal_0420</title>
  <path
     id="Path"
     d="m 30.104957,34.084513 a 67.23225,67.23225 0 0 1 28.46386,6.30229 30.70476,30.70476 0 0 0 -10.63667,-34.4645398 29.79281,29.79281 0 0 0 -35.65437,0 A 30.70472,30.70472 0 0 0 1.6411066,40.386803 67.23055,67.23055 0 0 1 30.104957,34.084513 Z"
     style="fill:url(#linear-gradient)"
     inkscape:connector-curvature="0" />
  <path
     d="m 84.895547,34.068343 a 11.6345,11.6345 0 0 1 -4.40757,-0.797 8.81939,8.81939 0 0 1 -3.36164,-2.38892 10.82879,10.82879 0 0 1 -2.14207,-3.94736 18.21185,18.21185 0 0 1 -0.74262,-5.46815 18.94115,18.94115 0 0 1 0.74262,-5.53927 11.33877,11.33877 0 0 1 2.14207,-4.07078 9.08242,9.08242 0 0 1 3.36164,-2.4934598 10.99123,10.99123 0 0 1 4.40757,-0.8493 10.00383,10.00383 0 0 1 5.5215,1.4141 9.73964,9.73964 0 0 1 3.50388,4.2841498 l -3.99966,2.12325 a 5.6457,5.6457 0 0 0 -1.73416,-2.67341 4.97555,4.97555 0 0 0 -3.29156,-1.00828 5.233,5.233 0 0 0 -4.15968,1.76972 7.312,7.312 0 0 0 -1.53962,4.95564 v 3.893 a 7.15967,7.15967 0 0 0 1.53962,4.93891 5.30884,5.30884 0 0 0 4.15968,1.71533 5.077,5.077 0 0 0 3.415,-1.1317 6.54047,6.54047 0 0 0 1.92871,-2.79683 l 3.78733,2.22993 a 10.869,10.869 0 0 1 -3.575,4.30089 9.55947,9.55947 0 0 1 -5.55604,1.53954 z"
     style="fill:#ffffff"
     id="path14"
     inkscape:connector-curvature="0" />
  <path
     d="m 102.49763,33.643693 a 4.50469,4.50469 0 0 1 -3.433803,-1.16935 4.61973,4.61973 0 0 1 -1.09719,-3.29051 V 7.4514032 h 4.531003 V 29.997563 h 2.44226 v 3.64613 z"
     style="fill:#ffffff"
     id="path16"
     inkscape:connector-curvature="0" />
  <path
     d="m 117.0997,33.643693 v -18.4754 h 4.531 v 3.07923 h 0.17677 a 5.98486,5.98486 0 0 1 1.6986,-2.47886 4.77039,4.77039 0 0 1 3.256,-1.02711 5.802,5.802 0 0 1 3.29261,0.92042 5.43682,5.43682 0 0 1 2.05213,2.79683 h 0.0711 a 5.20193,5.20193 0 0 1 1.96427,-2.63576 6.08,6.08 0 0 1 3.69842,-1.08149 5.01319,5.01319 0 0 1 4.19421,1.87641 8.50522,8.50522 0 0 1 1.46954,5.34473 v 11.681 h -4.531 v -11.22079 q 0,-3.96306 -2.97255,-3.9641 a 4.27887,4.27887 0 0 0 -1.29173,0.19455 3.4247,3.4247 0 0 0 -1.09718,0.56689 2.7242,2.7242 0 0 0 -0.76144,0.92043 2.76967,2.76967 0 0 0 -0.28345,1.29068 v 12.21234 h -4.53 v -11.22079 q 0,-3.96306 -2.97359,-3.9641 a 4.16447,4.16447 0 0 0 -1.25617,0.19455 3.42465,3.42465 0 0 0 -1.09719,0.56689 2.92972,2.92972 0 0 0 -0.77922,0.92043 2.63857,2.63857 0 0 0 -0.30015,1.29073 v 12.21229 z"
     style="fill:#ffffff"
     id="path18"
     inkscape:connector-curvature="0" />
  <path
     d="m 159.44099,30.564463 h -0.17676 a 4.73935,4.73935 0 0 1 -1.87536,2.5479 5.51382,5.51382 0 0 1 -3.22149,0.956 6.25814,6.25814 0 0 1 -5.36251,-2.51442 q -1.85758,-2.51025 -1.85758,-7.18349 0,-4.63769 1.85758,-7.13328 a 6.28106,6.28106 0 0 1 5.36251,-2.4956 5.59442,5.59442 0 0 1 3.22149,0.93925 4.64785,4.64785 0 0 1 1.87536,2.53116 h 0.17676 v -3.04369 h 4.531 v 18.4754 h -4.531 z m -3.82185,-0.24893 a 4.59129,4.59129 0 0 0 2.72467,-0.77818 2.56819,2.56819 0 0 0 1.09718,-2.22993 v -5.87602 a 2.56236,2.56236 0 0 0 -1.09718,-2.15881 4.45178,4.45178 0 0 0 -2.72467,-0.81374 3.66885,3.66885 0 0 0 -2.85017,1.18609 4.52575,4.52575 0 0 0 -1.07941,3.1671 v 3.18592 a 4.45781,4.45781 0 0 0 1.07941,3.15035 3.69767,3.69767 0 0 0 2.85017,1.16722 z"
     style="fill:#ffffff"
     id="path20"
     inkscape:connector-curvature="0" />
  <path
     d="m 174.34922,33.643693 a 4.82717,4.82717 0 0 1 -3.55723,-1.21746 4.70527,4.70527 0 0 1 -1.2206,-3.47879 v -10.13511 h -2.72569 v -3.644 h 1.41619 a 1.69111,1.69111 0 0 0 1.39737,-0.479 2.31055,2.31055 0 0 0 0.37236,-1.43293 v -3.15044 h 4.06973 v 5.06233 h 3.78735 v 3.644 h -3.78733 v 11.18527 h 3.50389 v 3.64613 z"
     style="fill:#ffffff"
     id="path22"
     inkscape:connector-curvature="0" />
  <path
     d="m 188.56253,34.068343 a 9.21631,9.21631 0 0 1 -3.66286,-0.69031 7.57109,7.57109 0 0 1 -2.72571,-1.94754 8.69249,8.69249 0 0 1 -1.71638,-3.04367 13.7327,13.7327 0 0 1 -0.0178,-7.98049 8.667,8.667 0 0 1 1.6819,-3.02693 7.45959,7.45959 0 0 1 2.6891,-1.94754 8.99979,8.99979 0 0 1 3.61057,-0.69031 8.79214,8.79214 0 0 1 3.75177,0.7447 7.22773,7.22773 0 0 1 2.619,2.01657 8.70835,8.70835 0 0 1 1.53962,2.95581 12.24482,12.24482 0 0 1 0.51356,3.59174 v 1.48732 h -12.28245 v 0.456 a 4.52476,4.52476 0 0 0 1.13275,3.2173 4.38649,4.38649 0 0 0 3.36269,1.21119 5.0103,5.0103 0 0 0 2.779,-0.70287 7.93414,7.93414 0 0 0 1.9287,-1.79273 l 2.44226,2.73408 a 7.59061,7.59061 0 0 1 -3.097,2.50187 10.78119,10.78119 0 0 1 -4.54874,0.90581 z m -0.0701,-15.9275 a 3.63131,3.63131 0 0 0 -2.8669,1.20282 4.53561,4.53561 0 0 0 -1.06268,3.1148 v 0.2824 h 7.57467 v -0.318 a 4.84179,4.84179 0 0 0 -0.9382,-3.096 3.24627,3.24627 0 0 0 -2.70689,-1.18602 z"
     style="fill:#ffffff"
     id="path24"
     inkscape:connector-curvature="0" />
  <path
     d="M 209.7037,33.643693 V 8.9387032 h 9.698 a 6.33259,6.33259 0 0 1 4.92009,1.8575798 7.18759,7.18759 0 0 1 1.69859,5.0435 7.23824,7.23824 0 0 1 -1.69859,5.07906 6.33259,6.33259 0 0 1 -4.92009,1.85756 h -7.57362 v 10.86729 z m 2.12429,-12.74158 h 7.57371 a 3.974,3.974 0 0 0 4.35423,-4.213 v -1.6986 a 3.97079,3.97079 0 0 0 -4.35423,-4.17747 h -7.57362 z"
     style="fill:#ffffff"
     id="path26"
     inkscape:connector-curvature="0" />
  <path
     d="m 235.19878,34.068343 a 8.01732,8.01732 0 0 1 -3.256,-0.638 6.723,6.723 0 0 1 -2.47782,-1.85758 8.70305,8.70305 0 0 1 -1.593,-2.99137 13.09573,13.09573 0 0 1 -0.56585,-3.99966 12.92312,12.92312 0 0 1 0.56585,-3.98083 8.73615,8.73615 0 0 1 1.593,-2.97464 6.90637,6.90637 0 0 1 2.47782,-1.87432 8.42312,8.42312 0 0 1 6.512,0 6.9244,6.9244 0 0 1 2.47782,1.87432 8.75406,8.75406 0 0 1 1.593,2.97464 12.95457,12.95457 0 0 1 0.56585,3.98083 13.12773,13.12773 0 0 1 -0.56585,3.99966 8.72068,8.72068 0 0 1 -1.593,2.99137 6.74009,6.74009 0 0 1 -2.47782,1.85758 8.01732,8.01732 0 0 1 -3.256,0.638 z m 0,-1.80528 a 5.435,5.435 0 0 0 4.1942,-1.663 6.954,6.954 0 0 0 1.53962,-4.88452 v -2.26553 a 6.96869,6.96869 0 0 0 -1.53962,-4.86779 6.09816,6.09816 0 0 0 -8.3884,-0.01673 6.95054,6.95054 0 0 0 -1.53962,4.88452 v 2.26549 a 6.95953,6.95953 0 0 0 1.53962,4.8657 5.40386,5.40386 0 0 0 4.1942,1.68186 z"
     style="fill:#ffffff"
     id="path28"
     inkscape:connector-curvature="0" />
  <path
     d="m 246.43922,33.643693 v -18.12188 h 2.01761 v 3.255 h 0.1412 a 5.63255,5.63255 0 0 1 1.80529,-2.2655 5.77724,5.77724 0 0 1 3.61057,-0.98946 h 1.20281 v 1.981 h -1.5919 a 6.45378,6.45378 0 0 0 -3.71726,0.99154 3.16006,3.16006 0 0 0 -1.45071,2.76127 v 12.38803 z"
     style="fill:#ffffff"
     id="path30"
     inkscape:connector-curvature="0" />
  <path
     d="m 262.53403,33.643693 a 2.1727,2.1727 0 0 1 -1.663,-0.60245 2.2904,2.2904 0 0 1 -0.56689,-1.63376 v -14.1515 h -3.15044 v -1.73417 h 2.05317 a 1.32112,1.32112 0 0 0 1.00933,-0.30122 1.65976,1.65976 0 0 0 0.26462,-1.07941 v -3.68169 h 1.84088 v 5.06232 h 4.1053 v 1.73417 h -4.1053 v 14.65355 h 3.8229 v 1.73416 z"
     style="fill:#ffffff"
     id="path32"
     inkscape:connector-curvature="0" />
  <path
     d="m 281.7297,30.740183 h -0.10563 a 5.762,5.762 0 0 1 -2.071,2.42448 6.123,6.123 0 0 1 -3.45054,0.90368 6.637,6.637 0 0 1 -5.487,-2.47886 q -1.98152,-2.47573 -1.982,-7.00777 0,-4.531 1.982,-7.00777 a 6.64129,6.64129 0 0 1 5.487,-2.47678 6.2101,6.2101 0 0 1 3.46832,0.9016 5.4895,5.4895 0 0 1 2.05318,2.42448 h 0.10563 v -2.90143 h 2.01761 v 18.12188 h -2.01757 z m -5.16692,1.52288 a 6.90023,6.90023 0 0 0 1.99879,-0.2824 5.06566,5.06566 0 0 0 1.6463,-0.83257 4.08108,4.08108 0 0 0 1.115,-1.30951 3.59045,3.59045 0 0 0 0.40686,-1.71743 v -7.18557 a 3.34313,3.34313 0 0 0 -0.40686,-1.62748 3.96066,3.96066 0 0 0 -1.115,-1.27395 5.56354,5.56354 0 0 0 -1.6463,-0.83256 6.56332,6.56332 0 0 0 -1.99879,-0.29914 5.34894,5.34894 0 0 0 -4.24754,1.73416 6.82308,6.82308 0 0 0 -1.52184,4.67115 v 2.5479 a 6.82874,6.82874 0 0 0 1.52184,4.67324 5.34894,5.34894 0 0 0 4.24757,1.73416 z"
     style="fill:#ffffff"
     id="path34"
     inkscape:connector-curvature="0" />
  <path
     d="m 289.99658,33.643693 a 2.1727,2.1727 0 0 1 -1.663,-0.60245 2.22306,2.22306 0 0 1 -0.5669,-1.59192 V 7.4514032 h 2.01761 V 31.909533 h 2.79579 v 1.73416 z"
     style="fill:#ffffff"
     id="path36"
     inkscape:connector-curvature="0" />
  <path
     d="m 108.68116,15.168293 h 4.531 v 18.4754 h -4.531 z"
     style="fill:#ffffff"
     id="path38"
     inkscape:connector-curvature="0" />
  <rect
     x="108.6814"
     y="7.4513836"
     width="4.5304899"
     height="4.5304899"
     style="fill:#ffffff"
     id="rect40" />
</svg>
