<svg width="985" height="157" viewBox="0 0 985 157" fill="none" xmlns="http://www.w3.org/2000/svg">
<path d="M1 120C1 89.5084 31.3335 64.7229 68.8944 64.7229L424.106 64.7229C461.557 64.7229 492 40.0265 492 9.53497L492 2.00001" stroke="#D4D8DE" stroke-miterlimit="10" stroke-linecap="round"/>
<path d="M984 120C984 89.5084 953.667 64.7229 916.106 64.7229L560.894 64.7229C523.443 64.7229 493 40.0265 493 9.53497L493 2.00001" stroke="#D4D8DE" stroke-miterlimit="10" stroke-linecap="round"/>
<line x1="1" y1="120" x2="0.999998" y2="157" stroke="#D4D8DE"/>
<line x1="984" y1="120" x2="984" y2="157" stroke="#D4D8DE"/>
<path d="M502 10C502 15.5479 497.548 20 492 20C486.521 20 482 15.5479 482 10C482 4.45206 486.521 0 492 0C497.548 0 502 4.45206 502 10Z" fill="#EBEBED"/>
<path d="M496 10C496 12.2295 494.179 14 491.967 14C489.821 14 488 12.2295 488 10C488 7.77049 489.821 6 491.967 6C494.179 6 496 7.77049 496 10Z" fill="#A4B2BF"/>
</svg>
