<svg width="984" height="157" viewBox="0 0 984 157" fill="none" xmlns="http://www.w3.org/2000/svg">
<path d="M0.500002 120H1.60933e-06H0.500002ZM68.3944 64.7229V64.2229V64.7229ZM423.606 64.7229V65.2229V64.7229ZM491.5 9.53498H492H491.5ZM492 2.00001C492 1.72387 491.776 1.50001 491.5 1.50001C491.224 1.50001 491 1.72387 491 2.00001H491.5H492ZM983.5 120H984H983.5ZM915.606 64.7229V64.2229V64.7229ZM560.394 64.7229V65.2229V64.7229ZM492.5 9.53497H492H492.5ZM493 2C493 1.72386 492.776 1.5 492.5 1.5C492.224 1.5 492 1.72386 492 2H492.5H493ZM0.500002 120H1C1 89.8753 31.0092 65.2229 68.3944 65.2229V64.7229V64.2229C30.6578 64.2229 4.14252e-06 89.1416 1.60933e-06 120H0.500002ZM68.3944 64.7229V65.2229L423.606 65.2229V64.7229V64.2229L68.3944 64.2229V64.7229ZM423.606 64.7229V65.2229C461.231 65.2229 492 40.3948 492 9.53498H491.5H491C491 39.6583 460.883 64.2229 423.606 64.2229V64.7229ZM491.5 9.53498H492V2.00001H491.5H491V9.53498H491.5ZM983.5 120H984C984 89.1416 953.342 64.2229 915.606 64.2229V64.7229V65.2229C952.991 65.2229 983 89.8753 983 120H983.5ZM915.606 64.7229V64.2229L560.394 64.2229V64.7229V65.2229L915.606 65.2229V64.7229ZM560.394 64.7229V64.2229C523.117 64.2229 493 39.6583 493 9.53497H492.5H492C492 40.3948 522.769 65.2229 560.394 65.2229V64.7229ZM492.5 9.53497H493V2H492.5H492V9.53497H492.5ZM0.500002 120H1.60933e-06L0 157H0.5H1L1 120H0.500002ZM983.5 120H983V157H983.5H984V120H983.5Z" fill="url(#paint0_linear_24259_73686)"/>
<path d="M501.5 10C501.5 15.5479 497.048 20 491.5 20C486.021 20 481.5 15.5479 481.5 10C481.5 4.45206 486.021 0 491.5 0C497.048 0 501.5 4.45206 501.5 10Z" fill="#A31F34"/>
<path d="M495.5 10C495.5 12.2295 493.679 14 491.467 14C489.321 14 487.5 12.2295 487.5 10C487.5 7.77049 489.321 6 491.467 6C493.679 6 495.5 7.77049 495.5 10Z" fill="white"/>
<defs>
<linearGradient id="paint0_linear_24259_73686" x1="492" y1="2" x2="492" y2="157" gradientUnits="userSpaceOnUse">
<stop stop-color="#B8C2CC"/>
<stop offset="1" stop-color="white"/>
</linearGradient>
</defs>
</svg>
