<svg width="611" height="631" viewBox="0 0 611 631" fill="none" xmlns="http://www.w3.org/2000/svg">
<path d="M54.8716 327.542C64.2161 238.586 102.878 141.52 170.265 76.573C206.265 41.8689 248.333 33.9412 291.082 43.7315C333.885 53.5342 377.386 81.1118 416.045 117.456C454.693 153.792 488.432 198.826 511.726 243.431C535.033 288.063 547.819 332.142 544.725 366.592C543.831 376.547 538.107 387.608 528.4 399.259C518.707 410.894 505.121 423.024 488.67 435.106C455.77 459.27 411.522 483.168 364.365 502.49C317.208 521.813 267.19 536.541 222.76 542.393C178.278 548.25 139.611 545.181 114.97 529.166C90.29 513.108 72.9185 484.999 62.8887 449.698C52.8613 414.406 50.2001 372.013 54.8716 327.542Z" stroke="#A31F34" stroke-width="2"/>
</svg>
