<svg width="24" height="24" viewBox="0 0 22 19" xmlns="http://www.w3.org/2000/svg">
<path d="M14 0C16.2091 0 18 1.79086 18 4C18 4.72903 17.8049 5.41251 17.4642 6.00111L22 6V7.99999H20V18C20 18.5523 19.5523 19 19 19H3C2.44772 19 2 18.5523 2 18V7.99999H0V6L4.53577 6.00111C4.19504 5.41251 4 4.72903 4 4C4 1.79086 5.79086 0 8 0C9.19522 0 10.268 0.52421 11.0009 1.35526C11.732 0.52421 12.8048 0 14 0ZM10 7.99999H4V17H10V7.99999ZM18 7.99999H12V17H18V7.99999ZM8 2C6.89543 2 6 2.89543 6 4C6 5.05436 6.81588 5.91816 7.85074 5.99451L8 6H10V4C10 2.99835 9.26372 2.16869 8.30278 2.02277L8.14927 2.00548L8 2ZM14 2C12.9456 2 12.0818 2.81588 12.0055 3.85074L12 4V6H14C15.0543 6 15.9181 5.18412 15.9945 4.14926L16 4C16 2.89543 15.1046 2 14 2Z" fill="#008000"/>
</svg>



