<svg width="20" height="20" viewBox="0 0 20 20" fill="none" xmlns="http://www.w3.org/2000/svg">
<g id="icon">
<path id="Vector" d="M14.1673 1.00684L15.2663 3.06753L17.3269 4.16656L15.2663 5.26559L14.1673 7.32629L13.0682 5.26559L11.0075 4.16656L13.0682 3.06753L14.1673 1.00684ZM8.88942 7.77767L13.0561 9.99988L8.88942 12.2221L6.66721 16.3888L4.44498 12.2221L0.27832 9.99988L4.44498 7.77767L6.66721 3.611L8.88942 7.77767ZM9.51442 9.99988L7.65754 9.00954L6.66721 7.15267L5.67687 9.00954L3.81998 9.99988L5.67687 10.9902L6.66721 12.8471L7.65754 10.9902L9.51442 9.99988ZM16.3894 13.611L15.0006 11.0069L13.6117 13.611L11.0075 14.9999L13.6117 16.3888L15.0006 18.993L16.3894 16.3888L18.9936 14.9999L16.3894 13.611Z" fill="white"/>
</g>
</svg>
