<svg xmlns="http://www.w3.org/2000/svg" width="64" height="64" viewBox="0 0 64 64" fill="none">
  <circle cx="31.9999" cy="31.9997" r="26.6667" fill="#006514"/>
  <path d="M31.9999 58.6663C17.2723 58.6663 5.33325 46.7271 5.33325 31.9997C5.33325 17.2721 17.2723 5.33301 31.9999 5.33301C46.7274 5.33301 58.6666 17.2721 58.6666 31.9997C58.6666 46.7271 46.7274 58.6663 31.9999 58.6663ZM29.3402 42.6663L48.1964 23.8102L44.4253 20.0389L29.3402 35.1239L21.7978 27.5813L18.0266 31.3527L29.3402 42.6663Z" fill="#006514"/>
  <path d="M31.9999 58.6663C17.2723 58.6663 5.33325 46.7271 5.33325 31.9997C5.33325 17.2721 17.2723 5.33301 31.9999 5.33301C46.7274 5.33301 58.6666 17.2721 58.6666 31.9997C58.6666 46.7271 46.7274 58.6663 31.9999 58.6663ZM29.3402 42.6663L48.1964 23.8102L44.4253 20.0389L29.3402 35.1239L21.7978 27.5813L18.0266 31.3527L29.3402 42.6663Z" fill="white" fill-opacity="0.9"/>
</svg>
